<svg width="268" height="442" viewBox="0 0 268 442" fill="none" xmlns="http://www.w3.org/2000/svg">
<path d="M109.05 2.5L116.717 2.5C116.76 2.52492 116.803 2.54984 116.847 2.57476C129.187 4.68358 143.379 12.8894 151.564 22.6174C167.284 12.0658 190.514 2.55716 209.771 5.982C222.259 8.2029 231.744 16.1162 238.757 26.0266C260.31 56.4832 264.61 115.959 265.426 152.475C265.588 159.674 265.434 166.91 265.436 174.113C265.382 213.596 263.309 253.05 259.223 292.332C258.273 301.992 257.249 311.642 256.151 321.287C255.79 324.622 254.721 335.82 254.034 338.693C248.029 363.795 218.378 388.792 197.856 402.77C175.547 417.967 152.042 427.082 126.27 433.727C118.043 435.877 109.675 437.478 101.223 438.52C99.667 438.71 93.2845 439.092 92.7034 439.5H78.1524C76.9259 438.665 73.1797 438.807 71.5713 438.625C20.2269 432.765 7.2659 371.55 3.81046 330.44C3.48678 326.578 3.27238 322.71 3.16747 318.837C3.12568 317.33 3.29533 312.005 2.5 311.027V280.255C2.83078 279.84 2.96485 279.41 2.97427 278.883C3.20945 265.7 4.06564 252.464 5.54627 239.356C9.80922 199.692 17.7593 160.484 29.2993 122.214C39.9621 87.066 60.0512 33.8155 90.572 10.3765C94.478 7.58383 98.6579 5.3471 103.302 3.97263C104.6 3.58846 108.172 3.02701 109.05 2.5ZM42.3165 314.63C53.7967 299.605 69.6158 296.652 87.8246 296.455C109.356 296.223 131.52 299.307 152.299 292.055C155.201 291.042 159.157 290.227 160.103 287.047C165.376 269.327 173.872 249.895 170.906 231.096C169.377 221.072 163.792 212.056 155.392 206.052C142.093 196.592 124.549 195.042 108.813 193.366C89.1179 191.269 50.6146 192.257 47.5009 166.541C44.3861 140.818 64.8538 109.17 79.8437 89.3723C98.9 64.1175 122.126 42.1025 148.579 24.2194C138.902 15.124 126.724 5.83275 112.466 5.66768C112.09 5.66333 111.036 5.7417 110.685 5.84435C82.6891 9.17585 60.9906 50.589 51.1187 73.246C25.4006 132.274 12.3254 197.145 7.13408 260.867C6.22437 272.032 6.27721 283.553 5.71558 294.763C5.46008 299.863 6.15561 305.448 6.2671 310.573C6.50297 320.948 7.08832 330.48 8.51005 340.875C12.4537 369.708 19.4492 403.14 42.8947 423.337C43.386 423.763 44.508 424.53 45.1017 424.47C44.7213 422.167 43.3449 419.315 42.6828 416.92C34.8361 388.542 26.4278 356.822 35.5188 327.787C36.9953 323.072 39.5564 318.698 42.3165 314.63ZM174.836 233.362C175.803 254.268 169.887 267.342 163.741 287.175C169.683 283.282 174.35 280.135 179.401 275.08C193.231 261.247 200.726 242.364 204.446 223.749C208.61 202.039 209.711 179.879 207.718 157.88C203.954 119.28 189.133 79.0943 167.286 46.644C165.561 44.082 153.013 27.1428 150.85 26.9499C139.556 34.3565 128.904 42.6475 118.999 51.7402C92.4804 75.9622 59.7875 115.273 51.6296 150.83C49.8401 158.63 49.7233 168.163 54.536 175.069C59.439 182.105 68.972 185.039 77.2549 186.647C106.354 192.298 148.252 186.612 167.591 213.487C171.615 219.079 174.086 226.645 174.836 233.362ZM153.918 24.9593C158.466 28.5725 165.398 37.8147 168.76 42.6842C195.402 81.2775 210.907 128.189 212.285 174.659C212.533 183.017 211.953 191.287 211.273 199.625C208.842 231.739 199.655 267.162 170.895 286.615C169.9 287.547 162.8 290.938 162.436 291.83C160.427 296.758 159.445 303.187 158.742 308.422C157.584 317.045 161.216 326.965 169.728 330.892C194.104 342.4 238.104 317.75 251.402 328.677L251.809 328.62C252.164 326.322 252.283 323.815 252.56 321.462C253.341 315.075 254.047 308.683 254.679 302.28C256.105 288.645 257.328 274.99 258.349 261.32C262.751 202.368 270.339 73.115 234.22 25.7346C227.679 17.1538 218.852 10.5424 207.769 8.97382C205.192 8.60912 202.358 8.37205 199.761 8.61415C186.163 9.13955 174.691 13.7913 162.861 19.937C159.81 21.5223 156.861 23.4069 153.918 24.9593ZM49.9728 427.94C52.7856 430.033 56.6298 431.492 59.9779 432.555C83.2246 439.927 110.004 434.98 132.83 428.525C143.175 425.45 153.516 422.237 163.371 417.857C189.257 406.352 213.519 389.555 232.256 368.652C237.44 362.867 242.383 356.688 246.102 349.897C248.309 345.867 252.179 338.245 250.639 333.61C250.103 331.997 248.948 330.818 247.392 330.085C234.093 323.815 190.63 346 167.335 333.45C162.345 330.76 158.749 326.59 156.826 321.383C154.977 316.378 154.785 310.965 155.527 305.735C155.888 303.197 156.267 300.475 156.886 297.995C157.097 297.145 158.108 294.707 158.005 293.995C157.992 293.902 157.903 293.838 157.852 293.76L157.548 293.758C148.397 297.21 138.753 299.278 128.956 299.883C116.622 300.565 103.538 299.788 91.0276 299.587C70.4608 299.258 50.0412 303.745 40.8637 323.795C29.4454 349.94 37.0958 381.977 43.9097 408.412C45.2285 413.53 47.8281 423.503 49.9728 427.94Z" fill="#986070" stroke="#986070" stroke-width="5"/>
</svg>
