<svg width="385" height="632" viewBox="0 0 385 632" fill="none" xmlns="http://www.w3.org/2000/svg">
<path d="M156.45 1L167.528 1C167.59 1.03598 167.653 1.07197 167.716 1.10795C185.546 4.15295 206.052 16.0017 217.877 30.0482C240.592 14.8125 274.155 1.08253 301.979 6.02779C320.022 9.23462 333.727 20.6609 343.86 34.971C375.001 78.9483 381.215 164.827 382.393 217.555C382.627 227.949 382.404 238.397 382.408 248.799C382.33 305.808 379.334 362.778 373.431 419.5C372.057 433.448 370.578 447.382 368.992 461.309C368.47 466.124 366.926 482.293 365.934 486.44C357.257 522.687 314.415 558.782 284.763 578.964C252.53 600.908 218.569 614.07 181.331 623.665C169.444 626.769 157.353 629.08 145.142 630.585C142.893 630.859 133.671 631.412 132.832 632H111.808C110.036 630.794 104.623 631 102.299 630.737C28.1131 622.275 9.3861 533.885 4.39344 474.524C3.92577 468.947 3.61598 463.363 3.46441 457.771C3.40403 455.594 3.64915 447.905 2.5 446.494V402.06C2.97794 401.461 3.17164 400.84 3.18525 400.079C3.52506 381.044 4.76214 361.932 6.90146 343.005C13.0609 285.732 24.5477 229.119 41.2214 173.859C56.6277 123.108 85.6538 46.2176 129.752 12.3732C135.396 8.34072 141.435 5.11103 148.145 3.12639C150.021 2.57166 155.182 1.76097 156.45 1ZM60.0295 451.696C76.6169 430.001 99.4735 425.737 125.783 425.452C156.893 425.116 188.917 429.571 218.94 419.099C223.133 417.637 228.848 416.46 230.216 411.868C237.834 386.282 250.11 358.223 245.825 331.079C243.615 316.604 235.546 303.586 223.409 294.917C204.193 281.257 178.845 279.018 156.108 276.599C127.651 273.571 72.0192 274.996 67.5203 237.865C63.0199 200.722 92.593 155.025 114.251 126.438C141.785 89.9717 175.343 58.1835 213.565 32.3614C199.583 19.2282 181.987 5.81228 161.386 5.57392C160.844 5.56764 159.32 5.68081 158.813 5.82903C118.363 10.6395 87.0111 70.4374 72.7476 103.153C35.5884 188.385 16.6963 282.055 9.19562 374.066C7.88122 390.188 7.95756 406.822 7.14608 423.008C6.77692 430.372 7.78188 438.437 7.94295 445.837C8.28376 460.818 9.1295 474.582 11.1837 489.592C16.8817 531.224 26.9893 579.498 60.865 608.662C61.5749 609.276 63.196 610.384 64.0538 610.298C63.5041 606.973 61.5154 602.854 60.5588 599.396C49.2214 558.421 37.0725 512.619 50.2077 470.694C52.3411 463.886 56.0416 457.569 60.0295 451.696ZM251.502 334.35C252.9 364.536 244.352 383.416 235.471 412.052C244.058 406.432 250.8 401.887 258.099 394.588C278.081 374.615 288.91 347.348 294.285 320.469C300.301 289.121 301.892 257.124 299.013 225.359C293.574 169.623 272.16 111.597 240.594 64.7411C238.102 61.0417 219.972 36.5827 216.846 36.3042C200.528 46.9987 185.136 58.9704 170.825 72.0998C132.51 107.075 85.2728 163.837 73.4857 215.179C70.9001 226.441 70.7314 240.206 77.6851 250.178C84.7692 260.338 98.5432 264.575 110.511 266.897C152.555 275.056 213.092 266.847 241.034 305.652C246.849 313.727 250.419 324.65 251.502 334.35ZM221.279 33.4298C227.85 38.647 237.867 51.9922 242.723 59.0235C281.218 114.75 303.621 182.487 305.611 249.587C305.969 261.655 305.131 273.597 304.15 285.637C300.636 332.007 287.363 383.156 245.809 411.244C244.371 412.59 234.113 417.485 233.587 418.774C230.684 425.889 229.265 435.173 228.249 442.732C226.575 455.183 231.823 469.507 244.122 475.178C279.343 491.794 342.916 456.201 362.13 471.979L362.718 471.896C363.231 468.579 363.403 464.958 363.803 461.561C364.931 452.338 365.952 443.108 366.865 433.863C368.925 414.175 370.693 394.458 372.168 374.72C378.528 289.596 389.491 102.964 337.305 34.5492C327.853 22.1591 315.1 12.6127 299.087 10.3478C295.363 9.82119 291.269 9.47886 287.516 9.82844C267.868 10.5871 251.293 17.304 234.201 26.1779C229.792 28.4671 225.531 31.1883 221.279 33.4298ZM71.0919 615.308C75.156 618.33 80.7104 620.438 85.5479 621.972C119.136 632.617 157.828 625.473 190.809 616.153C205.757 611.713 220.698 607.074 234.938 600.75C272.339 584.137 307.394 559.883 334.467 529.701C341.958 521.348 349.099 512.424 354.472 502.62C357.661 496.801 363.253 485.794 361.028 479.102C360.254 476.773 358.585 475.069 356.336 474.012C337.121 464.958 274.323 496.992 240.665 478.871C233.454 474.986 228.259 468.965 225.48 461.446C222.809 454.219 222.531 446.404 223.604 438.852C224.125 435.188 224.674 431.257 225.567 427.676C225.872 426.448 227.333 422.929 227.184 421.9C227.165 421.767 227.037 421.673 226.963 421.561L226.524 421.557C213.301 426.542 199.368 429.528 185.211 430.401C167.392 431.387 148.487 430.264 130.411 429.975C100.694 429.499 71.1907 435.978 57.9304 464.929C41.4325 502.681 52.4864 548.941 62.3316 587.112C64.237 594.501 67.993 608.901 71.0919 615.308Z" fill="#986070"/>
<path d="M156.45 1L167.528 1C167.59 1.03598 167.653 1.07197 167.716 1.10795C185.546 4.15295 206.052 16.0017 217.877 30.0482C240.592 14.8125 274.155 1.08253 301.979 6.02779C320.022 9.23462 333.727 20.6609 343.86 34.971C375.001 78.9483 381.215 164.827 382.393 217.555C382.627 227.949 382.404 238.397 382.408 248.799C382.33 305.808 379.334 362.778 373.431 419.5C372.057 433.448 370.578 447.382 368.992 461.309C368.47 466.124 366.926 482.293 365.934 486.44C357.257 522.687 314.415 558.782 284.763 578.964C252.53 600.908 218.569 614.07 181.331 623.665C169.444 626.769 157.353 629.08 145.142 630.585C142.893 630.859 133.671 631.412 132.832 632H111.808C110.036 630.794 104.623 631 102.299 630.737C28.1131 622.275 9.3861 533.885 4.39344 474.524C3.92577 468.947 3.61598 463.363 3.46441 457.771C3.40403 455.594 3.64915 447.905 2.5 446.494V402.06C2.97794 401.461 3.17164 400.84 3.18525 400.079C3.52506 381.044 4.76214 361.932 6.90146 343.005C13.0609 285.732 24.5477 229.119 41.2214 173.859C56.6277 123.108 85.6538 46.2176 129.752 12.3732C135.396 8.34072 141.435 5.11103 148.145 3.12639C150.021 2.57166 155.182 1.76097 156.45 1ZM60.0295 451.696C76.6169 430.001 99.4735 425.737 125.783 425.452C156.893 425.116 188.917 429.571 218.94 419.099C223.133 417.637 228.848 416.46 230.216 411.868C237.834 386.282 250.11 358.223 245.825 331.079C243.615 316.604 235.546 303.586 223.409 294.917C204.193 281.257 178.845 279.018 156.108 276.599C127.651 273.571 72.0192 274.996 67.5203 237.865C63.0199 200.722 92.593 155.025 114.251 126.438C141.785 89.9717 175.343 58.1835 213.565 32.3614C199.583 19.2282 181.987 5.81228 161.386 5.57392C160.844 5.56764 159.32 5.68081 158.813 5.82903C118.363 10.6395 87.0111 70.4374 72.7476 103.153C35.5884 188.385 16.6963 282.055 9.19562 374.066C7.88122 390.188 7.95756 406.822 7.14608 423.008C6.77692 430.372 7.78188 438.437 7.94295 445.837C8.28376 460.818 9.1295 474.582 11.1837 489.592C16.8817 531.224 26.9893 579.498 60.865 608.662C61.5749 609.276 63.196 610.384 64.0538 610.298C63.5041 606.973 61.5154 602.854 60.5588 599.396C49.2214 558.421 37.0725 512.619 50.2077 470.694C52.3411 463.886 56.0416 457.569 60.0295 451.696ZM251.502 334.35C252.9 364.536 244.352 383.416 235.471 412.052C244.058 406.432 250.8 401.887 258.099 394.588C278.081 374.615 288.91 347.348 294.285 320.469C300.301 289.121 301.892 257.124 299.013 225.359C293.574 169.623 272.16 111.597 240.594 64.7411C238.102 61.0417 219.972 36.5827 216.846 36.3042C200.528 46.9987 185.136 58.9704 170.825 72.0998C132.51 107.075 85.2728 163.837 73.4857 215.179C70.9001 226.441 70.7314 240.206 77.6851 250.178C84.7692 260.338 98.5432 264.575 110.511 266.897C152.555 275.056 213.092 266.847 241.034 305.652C246.849 313.727 250.419 324.65 251.502 334.35ZM221.279 33.4298C227.85 38.647 237.867 51.9922 242.723 59.0235C281.218 114.75 303.621 182.487 305.611 249.587C305.969 261.655 305.131 273.597 304.15 285.637C300.636 332.007 287.363 383.156 245.809 411.244C244.371 412.59 234.113 417.485 233.587 418.774C230.684 425.889 229.265 435.173 228.249 442.732C226.575 455.183 231.823 469.507 244.122 475.178C279.343 491.794 342.916 456.201 362.13 471.979L362.718 471.896C363.231 468.579 363.403 464.958 363.803 461.561C364.931 452.338 365.952 443.108 366.865 433.863C368.925 414.175 370.693 394.458 372.168 374.72C378.528 289.596 389.491 102.964 337.305 34.5492C327.853 22.1591 315.1 12.6127 299.087 10.3478C295.363 9.82119 291.269 9.47886 287.516 9.82844C267.868 10.5871 251.293 17.304 234.201 26.1779C229.792 28.4671 225.531 31.1883 221.279 33.4298ZM71.0919 615.308C75.156 618.33 80.7104 620.438 85.5479 621.972C119.136 632.617 157.828 625.473 190.809 616.153C205.757 611.713 220.698 607.074 234.938 600.75C272.339 584.137 307.394 559.883 334.467 529.701C341.958 521.348 349.099 512.424 354.472 502.62C357.661 496.801 363.253 485.794 361.028 479.102C360.254 476.773 358.585 475.069 356.336 474.012C337.121 464.958 274.323 496.992 240.665 478.871C233.454 474.986 228.259 468.965 225.48 461.446C222.809 454.219 222.531 446.404 223.604 438.852C224.125 435.188 224.674 431.257 225.567 427.676C225.872 426.448 227.333 422.929 227.184 421.9C227.165 421.767 227.037 421.673 226.963 421.561L226.524 421.557C213.301 426.542 199.368 429.528 185.211 430.401C167.392 431.387 148.487 430.264 130.411 429.975C100.694 429.499 71.1907 435.978 57.9304 464.929C41.4325 502.681 52.4864 548.941 62.3316 587.112C64.237 594.501 67.993 608.901 71.0919 615.308Z" stroke="#986070" stroke-width="5"/>
</svg>
